<?xml version="1.0" encoding="utf-8"?>
<!DOCTYPE svg PUBLIC "-//W3C//DTD SVG 1.1//EN" "http://www.w3.org/Graphics/SVG/1.1/DTD/svg11.dtd">
<svg version="1.1" id="图形" xmlns="http://www.w3.org/2000/svg" xmlns:xlink="http://www.w3.org/1999/xlink" x="0px" y="0px" width="1024px" height="1024px" viewBox="0 0 1024 1024" enable-background="new 0 0 1024 1024" xml:space="preserve">
  <path fill="#272636" d="M896.228453-169.542003 127.770524-169.542003c-23.584138 0-85.333504 60.419068-85.333504 83.960227L42.43702 682.917086c0 23.541159 60.458977 86.665849 83.999113 86.665849l769.791298 0c23.542182 0 85.334527-63.125713 85.334527-86.665849l0-768.498862C981.56298-109.122935 919.770636-169.542003 896.228453-169.542003zM296.810474 42.917854c0-23.584138 19.125593-42.666752 42.666752-42.666752l342.91707 0c23.541159 0 42.665729 19.082614 42.665729 42.666752L725.060025 300.293689c0 23.541159-19.12457 42.666752-42.665729 42.666752L339.477226 342.960441c-23.541159 0-42.666752-19.125593-42.666752-42.666752L296.810474 42.917854zM325.351508 641.583702 181.245436 497.376323l72.77549-72.874751L399.393851 568.708951 325.351508 641.583702zM695.934684 641.583702 622.958626 568.811282l144.455019-145.333016 72.77242 73.898057L695.934684 641.583702z" transform="translate(0, 812) scale(1, -1)"/>
</svg>
